<?xml version="1.0" standalone="no"?>
<!DOCTYPE svg PUBLIC "-//W3C//DTD SVG 20010904//EN"
 "http://www.w3.org/TR/2001/REC-SVG-20010904/DTD/svg10.dtd">
<svg version="1.0" xmlns="http://www.w3.org/2000/svg"
 width="700.000000pt" height="700.000000pt" viewBox="0 0 700.000000 700.000000"
 preserveAspectRatio="xMidYMid meet">
<metadata>
Created by potrace 1.14, written by Peter Selinger 2001-2017
</metadata>
<g transform="translate(0.000000,700.000000) scale(0.100000,-0.100000)"
fill="#000000" stroke="none">
<path d="M1980 6989 c-383 -29 -764 -121 -1045 -252 -481 -225 -724 -427 -865
-718 -128 -265 -71 -500 149 -618 95 -50 285 -79 1051 -161 447 -48 454 -49
477 -65 17 -12 17 -15 0 -66 -67 -204 -200 -635 -263 -854 -233 -805 -326
-1296 -444 -2350 -75 -664 -121 -997 -205 -1481 -27 -150 -43 -272 -40 -291 6
-32 64 -93 88 -93 30 0 89 54 108 98 66 153 140 600 219 1317 22 204 54 494
71 645 70 641 150 1067 320 1715 112 426 331 1145 391 1288 l21 48 96 -6 c518
-30 1048 -69 1521 -111 157 -14 304 -23 328 -20 57 8 98 33 113 69 11 26 10
35 -10 72 -12 23 -33 47 -46 53 -34 16 -326 46 -785 82 -1859 145 -2676 227
-2842 286 -108 38 -158 101 -158 198 0 116 71 240 224 392 218 216 580 403
1004 520 275 75 424 88 917 81 546 -8 698 -30 1298 -192 473 -127 789 -232
1030 -342 632 -289 1091 -692 1362 -1198 111 -208 293 -705 409 -1116 48 -170
143 -674 191 -1003 79 -556 99 -821 98 -1316 0 -471 -15 -724 -79 -1340 -10
-91 -14 -178 -10 -193 7 -30 58 -67 91 -67 45 0 92 21 103 45 6 14 20 78 31
142 122 730 134 1676 30 2523 -104 854 -399 1927 -670 2440 -262 493 -714 912
-1304 1208 -257 129 -499 220 -925 348 -765 231 -1465 328 -2050 283z"/>
<path d="M1016 6151 c-27 -30 -37 -78 -23 -119 15 -46 69 -79 111 -68 36 9 83
55 92 90 9 36 -13 84 -47 101 -41 22 -112 19 -133 -4z"/>
<path d="M2557 5939 c-24 -14 -47 -62 -47 -98 0 -49 17 -79 58 -100 35 -18 40
-18 70 -4 37 18 92 77 92 99 0 72 -112 139 -173 103z"/>
<path d="M6020 3095 c-141 -39 -728 -252 -1081 -394 -242 -96 -460 -193 -819
-363 -383 -182 -399 -188 -533 -198 -72 -6 -135 -18 -188 -35 -96 -32 -89 -34
-221 61 -282 205 -772 507 -947 585 -215 95 -292 89 -307 -24 -6 -41 -4 -48
21 -71 14 -14 116 -70 226 -125 310 -157 519 -287 907 -566 l83 -60 -6 -100
c-12 -209 59 -437 177 -570 79 -88 94 -94 233 -94 75 0 144 -5 185 -15 116
-28 135 -24 252 58 35 24 96 60 137 81 83 41 164 111 192 167 40 79 15 185
-64 266 -54 56 -96 77 -204 102 -91 22 -117 34 -153 72 -48 52 -21 86 144 179
332 189 1073 501 1736 733 404 142 490 189 476 260 -4 17 -16 40 -28 53 -29
31 -103 30 -218 -2z"/>
</g>
</svg>
