<?xml version="1.0" encoding="UTF-8" standalone="no"?>
<!-- Created with Inkscape (http://www.inkscape.org/) -->

<svg
   width="135.93491mm"
   height="135.46667mm"
   viewBox="0 0 135.93491 135.46667"
   version="1.1"
   id="svg1"
   xml:space="preserve"
   inkscape:version="1.3.2 (091e20ef0f, 2023-11-25)"
   sodipodi:docname="jailed.svg"
   xmlns:inkscape="http://www.inkscape.org/namespaces/inkscape"
   xmlns:sodipodi="http://sodipodi.sourceforge.net/DTD/sodipodi-0.dtd"
   xmlns="http://www.w3.org/2000/svg"
   xmlns:svg="http://www.w3.org/2000/svg"><sodipodi:namedview
     id="namedview1"
     pagecolor="#505050"
     bordercolor="#eeeeee"
     borderopacity="1"
     inkscape:showpageshadow="0"
     inkscape:pageopacity="0"
     inkscape:pagecheckerboard="0"
     inkscape:deskcolor="#505050"
     inkscape:document-units="mm"
     inkscape:zoom="0.71713664"
     inkscape:cx="105.97701"
     inkscape:cy="349.30582"
     inkscape:window-width="1920"
     inkscape:window-height="1011"
     inkscape:window-x="0"
     inkscape:window-y="0"
     inkscape:window-maximized="1"
     inkscape:current-layer="svg1" /><defs
     id="defs1" /><g
     inkscape:label="Layer 1"
     inkscape:groupmode="layer"
     id="layer1"
     transform="translate(-49.727796,-76.510202)" /><g
     id="g2"
     transform="matrix(0.2822222,0,0,0.28222223,145.70078,-3.5603843e-6)"><rect
       style="fill:#ffffff;fill-opacity:1;stroke-width:0.264583"
       id="rect1"
       width="135.46666"
       height="135.46666"
       x="3.5603841e-06"
       y="3.5603841e-06"
       ry="0"
       transform="matrix(3.5433073,0,0,3.5433072,-515.4331,0)" /><path
       style="fill:#000000;stroke-width:8.19143"
       d="m 18.230767,132.04241 c 0,-10.94103 7.426978,-57.664312 10.954451,-68.914498 C 31.473661,55.82935 33.358598,48.774731 33.374,47.451091 33.39048,46.127348 27.404415,44.176828 20.074156,43.116437 4.7407196,40.898346 0.97126481,37.245076 4.2264494,27.757199 5.7322884,23.368154 9.9186786,19.878594 19.314401,15.180739 36.275474,6.7002459 57.399997,6.2203136 79.569442,13.811778 111.61665,24.785754 124.2312,43.395597 131.1812,89.953102 c 2.5517,17.093198 0.53243,45.513568 -3.23431,45.513568 -1.88664,0 -2.6115,-6.78708 -2.60405,-24.38234 C 125.35934,73.576969 114.5033,40.737234 98.61293,30.221501 85.171141,21.326122 66.284585,15.600966 49.656816,15.381261 37.142939,15.215732 32.302795,16.252598 22.023549,21.3003 13.816641,25.330243 9.5615292,28.736064 9.5615292,31.274917 c 0,3.900842 6.1882198,4.985959 58.0991368,10.187516 7.440857,0.745414 11.199385,2.048492 10.645238,3.690232 -0.591428,1.752473 -6.498756,2.30407 -19.090106,1.782608 l -18.233451,-0.75524 -4.83752,18.093698 C 30.438924,85.615738 27.6219,100.81427 25.660629,120.83728 c -1.01092,10.32103 -2.315972,14.62939 -4.4314,14.62939 -1.649189,0 -2.998462,-1.54097 -2.998462,-3.42426 z M 62.10958,115.62639 c -1.48494,-1.48486 -2.69989,-4.94327 -2.69989,-7.68526 0,-3.73881 -2.701784,-6.47556 -10.805318,-10.94497 -5.942939,-3.277722 -10.819378,-7.178545 -10.836586,-8.668577 -0.04923,-4.242579 4.047053,-3.238708 15.474656,3.792799 5.811896,3.576047 11.874196,6.501925 13.471942,6.501925 1.597737,0 12.911897,-4.376501 25.142673,-9.725668 20.664423,-9.037496 26.070093,-10.182106 26.070093,-5.519872 0,1.010425 -7.55846,4.967778 -16.79667,8.794087 -25.723009,10.654066 -25.544054,10.532676 -20.768452,14.082186 3.149699,2.34094 3.477756,3.7633 1.584957,6.8717 -2.863713,4.70293 -15.981766,6.35729 -19.837405,2.50165 z M 48.57318,31.435636 c 0,-1.192025 1.462895,-2.167374 3.250928,-2.167374 1.788022,0 3.251003,0.975349 3.251003,2.167374 0,1.192006 -1.462981,2.167271 -3.251003,2.167271 -1.788033,0 -3.250928,-0.975265 -3.250928,-2.167271 z M 21.784036,29.931774 c -2.440791,-2.440814 -1.48659,-4.998081 1.865026,-4.998081 1.788009,0 3.250922,0.917674 3.250922,2.03934 0,2.732979 -3.384452,4.690325 -5.115948,2.958741 z"
       id="path1"
       transform="matrix(3.5433073,0,0,3.5433072,-515.4331,0)" /><g
       id="g4160"
       transform="matrix(0.65668889,0,0,0.48528043,-162.86688,-135.93637)"><path
         style="opacity:1;fill:#d38d5f;fill-opacity:1;stroke:none;stroke-width:2;stroke-miterlimit:4;stroke-dasharray:2, 2;stroke-dashoffset:0;stroke-opacity:1"
         d=""
         id="path4367"
         inkscape:connector-curvature="0"
         transform="translate(-543.46207,248.49753)" /><g
         id="g4423"
         transform="translate(0.12847854,1.2576119)"
         inkscape:export-xdpi="300"
         inkscape:export-ydpi="300"><rect
           y="289.33112"
           x="-529.27643"
           height="968.17981"
           width="715.46625"
           id="rect4393"
           style="opacity:1;fill:none;fill-opacity:1;stroke:#000000;stroke-width:18;stroke-miterlimit:4;stroke-dasharray:none;stroke-dashoffset:0;stroke-opacity:1" /><path
           style="fill:none;fill-rule:evenodd;stroke:#000000;stroke-width:30;stroke-linecap:butt;stroke-linejoin:miter;stroke-miterlimit:4;stroke-dasharray:none;stroke-opacity:1"
           d="M -464.5765,295.14545 V 1255.1454"
           id="path4397"
           inkscape:connector-curvature="0" /><path
           style="fill:none;fill-rule:evenodd;stroke:#000000;stroke-width:30;stroke-linecap:butt;stroke-linejoin:miter;stroke-miterlimit:4;stroke-dasharray:none;stroke-opacity:1"
           d="M -368.26957,295.14545 V 1255.1454"
           id="path4401"
           inkscape:connector-curvature="0" /><path
           style="fill:none;fill-rule:evenodd;stroke:#000000;stroke-width:30;stroke-linecap:butt;stroke-linejoin:miter;stroke-miterlimit:4;stroke-dasharray:none;stroke-opacity:1"
           d="M -271.96265,295.14545 V 1255.1454"
           id="path4405"
           inkscape:connector-curvature="0" /><path
           style="fill:none;fill-rule:evenodd;stroke:#000000;stroke-width:30;stroke-linecap:butt;stroke-linejoin:miter;stroke-miterlimit:4;stroke-dasharray:none;stroke-opacity:1"
           d="M -175.65569,295.14545 V 1255.1454"
           id="path4409"
           inkscape:connector-curvature="0" /><path
           style="fill:none;fill-rule:evenodd;stroke:#000000;stroke-width:30;stroke-linecap:butt;stroke-linejoin:miter;stroke-miterlimit:4;stroke-dasharray:none;stroke-opacity:1"
           d="M -79.348735,295.14545 V 1255.1454"
           id="path4413"
           inkscape:connector-curvature="0" /><path
           style="fill:none;fill-rule:evenodd;stroke:#000000;stroke-width:30;stroke-linecap:butt;stroke-linejoin:miter;stroke-miterlimit:4;stroke-dasharray:none;stroke-opacity:1"
           d="M 16.958161,295.14545 V 1255.1454"
           id="path4417"
           inkscape:connector-curvature="0" /><path
           style="fill:none;fill-rule:evenodd;stroke:#000000;stroke-width:30;stroke-linecap:butt;stroke-linejoin:miter;stroke-miterlimit:4;stroke-dasharray:none;stroke-opacity:1"
           d="M 113.26512,295.14545 V 1255.1454"
           id="path4421"
           inkscape:connector-curvature="0" /></g></g></g></svg>
